<?xml version="1.0" encoding="UTF-8"?>
<!DOCTYPE svg PUBLIC "-//W3C//DTD SVG 1.1//EN" "http://www.w3.org/Graphics/SVG/1.1/DTD/svg11.dtd">
<svg xmlns="http://www.w3.org/2000/svg" version="1.1" width="368px" height="368px" style="shape-rendering:geometricPrecision; text-rendering:geometricPrecision; image-rendering:optimizeQuality; fill-rule:evenodd; clip-rule:evenodd" xmlns:xlink="http://www.w3.org/1999/xlink">
<g><path style="opacity:0.978" fill="#3565fc" d="M 349.5,193.5 C 345.526,193.987 341.859,195.32 338.5,197.5C 338.855,198.522 339.522,199.189 340.5,199.5C 340.5,200.167 340.5,200.833 340.5,201.5C 343.657,232.692 329.99,251.858 299.5,259C 295.514,259.499 291.514,259.666 287.5,259.5C 285.379,259.675 283.379,259.341 281.5,258.5C 282.11,257.609 282.443,256.609 282.5,255.5C 311.693,259.754 330.027,247.754 337.5,219.5C 340.046,192.488 328.046,175.321 301.5,168C 275.344,166.157 258.178,177.657 250,202.5C 249.028,211.306 249.694,219.973 252,228.5C 252.383,229.056 252.883,229.389 253.5,229.5C 254.773,231.713 255.773,234.046 256.5,236.5C 256.167,237.5 255.5,238.167 254.5,238.5C 252.412,236.664 251.079,234.331 250.5,231.5C 249.341,229.623 247.674,229.123 245.5,230C 234.21,233.984 223.21,238.484 212.5,243.5C 213.686,241.806 213.519,240.139 212,238.5C 203.616,227.623 195.449,216.623 187.5,205.5C 180.468,184.905 173.135,164.405 165.5,144C 167.859,142.758 169.859,141.258 171.5,139.5C 172.598,138.399 172.765,137.066 172,135.5C 164.53,117.584 157.363,99.5835 150.5,81.5C 157.678,79.3864 164.345,76.2197 170.5,72C 211.062,57.0368 251.729,42.7035 292.5,29C 312.063,83.1882 331.73,137.355 351.5,191.5C 351.145,192.522 350.478,193.189 349.5,193.5 Z"/></g>
<g><path style="opacity:1" fill="#fafafe" d="M 247.5,222.5 C 242.578,223.863 237.745,225.53 233,227.5C 232.228,227.355 231.561,227.022 231,226.5C 228.598,219.795 226.098,213.128 223.5,206.5C 226.026,205.103 228.692,204.103 231.5,203.5C 233.948,203.99 235.615,203.157 236.5,201C 235.067,197.234 233.067,196.734 230.5,199.5C 227.598,200.784 224.598,201.784 221.5,202.5C 218.777,192.331 215.444,182.331 211.5,172.5C 213.487,170.673 215.821,169.673 218.5,169.5C 222.677,170.158 224.177,168.492 223,164.5C 220.765,163.02 218.932,163.353 217.5,165.5C 215.321,166.059 213.154,166.726 211,167.5C 210.235,167.43 209.735,167.097 209.5,166.5C 205.77,156.976 202.436,147.309 199.5,137.5C 202.215,135.928 205.215,134.928 208.5,134.5C 211.076,134.278 211.91,132.945 211,130.5C 209.384,129.199 207.884,129.199 206.5,130.5C 203.862,131.492 201.195,132.492 198.5,133.5C 197.479,132.099 196.479,130.765 195.5,129.5C 195.421,130.93 195.754,132.264 196.5,133.5C 195.086,134.624 193.586,135.624 192,136.5C 191.51,137.793 191.343,139.127 191.5,140.5C 188.538,141.061 185.705,142.061 183,143.5C 179.88,142.407 179.713,140.907 182.5,139C 184.9,138.256 187.233,137.423 189.5,136.5C 190.598,135.399 190.765,134.066 190,132.5C 186.932,123.795 183.765,115.128 180.5,106.5C 185.786,103.184 191.453,100.851 197.5,99.5C 198.801,98.1155 198.801,96.6155 197.5,95C 195.648,94.2274 194.314,94.7274 193.5,96.5C 189.112,98.3917 184.612,100.058 180,101.5C 177.308,97.6088 175.475,93.2755 174.5,88.5C 174.461,85.1903 175.794,82.5237 178.5,80.5C 177.289,79.2798 177.289,78.1131 178.5,77C 214.948,64.1287 251.281,50.962 287.5,37.5C 306.217,87.3131 324.55,137.313 342.5,187.5C 340.51,188.498 338.51,189.498 336.5,190.5C 322.124,168.096 302.124,160.596 276.5,168C 253.812,179.208 244.145,197.375 247.5,222.5 Z"/></g>
<g><path style="opacity:1" fill="#3767fd" d="M 297.5,87.5 C 294.126,83.6494 289.793,81.6494 284.5,81.5C 283.864,79.22 282.864,77.22 281.5,75.5C 281.768,73.901 281.434,72.5676 280.5,71.5C 278.615,64.8879 274.282,62.3879 267.5,64C 262.591,67.3401 261.258,71.8401 263.5,77.5C 263.557,78.609 263.89,79.609 264.5,80.5C 265.349,83.0351 266.349,85.5351 267.5,88C 265.4,90.1003 263.233,92.2669 261,94.5C 260.505,96.4727 260.338,98.4727 260.5,100.5C 255.762,89.0266 251.595,77.36 248,65.5C 260.331,60.6675 272.831,56.3341 285.5,52.5C 289.214,64.2618 293.214,75.9284 297.5,87.5 Z"/></g>
<g><path style="opacity:1" fill="#05046a" d="M 280.5,71.5 C 276.592,73.025 272.592,74.3583 268.5,75.5C 266.971,75.4712 265.804,74.8045 265,73.5C 264.508,74.549 264.674,75.549 265.5,76.5C 265.043,77.2975 264.376,77.6309 263.5,77.5C 261.258,71.8401 262.591,67.3401 267.5,64C 274.282,62.3879 278.615,64.8879 280.5,71.5 Z"/></g>
<g><path style="opacity:0.994" fill="#f9fafd" d="M 129.5,70.5 C 130.167,72.5 130.833,74.5 131.5,76.5C 111.086,84.6379 90.7528,92.9713 70.5,101.5C 66.1579,102.939 62.1579,104.939 58.5,107.5C 63.9016,120.044 68.9016,132.711 73.5,145.5C 75.7834,145.392 77.7834,144.559 79.5,143C 90.3516,134.97 101.018,126.803 111.5,118.5C 113.903,116.459 116.57,115.292 119.5,115C 122.64,118.812 125.64,122.645 128.5,126.5C 132.791,132.792 137.458,138.792 142.5,144.5C 147.489,142.999 152.155,140.999 156.5,138.5C 159.179,138.327 161.513,137.327 163.5,135.5C 156.39,117.63 149.057,99.9631 141.5,82.5C 143.703,80.8998 146.036,79.5665 148.5,78.5C 149.401,79.2905 150.068,80.2905 150.5,81.5C 157.363,99.5835 164.53,117.584 172,135.5C 172.765,137.066 172.598,138.399 171.5,139.5C 166.982,141.261 162.649,143.261 158.5,145.5C 154.178,146.385 150.178,148.052 146.5,150.5C 158.854,167.234 171.188,183.901 183.5,200.5C 184.604,202.389 185.937,204.055 187.5,205.5C 195.449,216.623 203.616,227.623 212,238.5C 213.519,240.139 213.686,241.806 212.5,243.5C 181.534,265.963 150.7,288.63 120,311.5C 106.822,294.462 93.6558,277.462 80.5,260.5C 71.9113,247.905 62.9113,235.571 53.5,223.5C 51.1829,219.854 48.5162,216.52 45.5,213.5C 45.2624,211.596 44.2624,210.262 42.5,209.5C 42.573,207.973 41.9063,206.973 40.5,206.5C 39.8333,206.5 39.5,206.167 39.5,205.5C 39.4456,203.368 38.4456,202.035 36.5,201.5C 36.573,199.973 35.9063,198.973 34.5,198.5C 30.6968,193.851 27.0301,189.018 23.5,184C 26.6902,181.636 29.6902,179.136 32.5,176.5C 33.609,176.443 34.609,176.11 35.5,175.5C 46.3479,167.575 57.0145,159.409 67.5,151C 62.4338,137.945 57.1005,125.112 51.5,112.5C 50.2811,109.709 48.9478,106.876 47.5,104C 74.7028,92.5427 102.036,81.3761 129.5,70.5 Z"/></g>
<g><path style="opacity:1" fill="#476efc" d="M 129.5,70.5 C 136.073,72.7958 142.406,75.4625 148.5,78.5C 146.036,79.5665 143.703,80.8998 141.5,82.5C 139.323,82.5861 137.323,83.2528 135.5,84.5C 134.341,81.6517 133.008,78.9851 131.5,76.5C 130.833,74.5 130.167,72.5 129.5,70.5 Z"/></g>
<g><path style="opacity:1" fill="#f0f0f7" d="M 280.5,71.5 C 281.434,72.5676 281.768,73.901 281.5,75.5C 281.599,78.2372 281.265,80.9039 280.5,83.5C 278.203,87.5021 274.87,88.5021 270.5,86.5C 268.509,84.5428 266.509,82.5428 264.5,80.5C 263.89,79.609 263.557,78.609 263.5,77.5C 264.376,77.6309 265.043,77.2975 265.5,76.5C 264.674,75.549 264.508,74.549 265,73.5C 265.804,74.8045 266.971,75.4712 268.5,75.5C 272.592,74.3583 276.592,73.025 280.5,71.5 Z"/></g>
<g><path style="opacity:1" fill="#06066e" d="M 281.5,75.5 C 282.864,77.22 283.864,79.22 284.5,81.5C 289.793,81.6494 294.126,83.6494 297.5,87.5C 298.598,88.397 298.598,89.2303 297.5,90C 285.79,94.0699 274.123,98.2365 262.5,102.5C 261.287,102.253 260.62,101.586 260.5,100.5C 260.338,98.4727 260.505,96.4727 261,94.5C 263.233,92.2669 265.4,90.1003 267.5,88C 266.349,85.5351 265.349,83.0351 264.5,80.5C 266.509,82.5428 268.509,84.5428 270.5,86.5C 271.627,92.1342 274.96,94.3009 280.5,93C 281.792,89.8347 281.792,86.668 280.5,83.5C 281.265,80.9039 281.599,78.2372 281.5,75.5 Z"/></g>
<g><path style="opacity:1" fill="#020168" d="M 131.5,76.5 C 133.008,78.9851 134.341,81.6517 135.5,84.5C 137.323,83.2528 139.323,82.5861 141.5,82.5C 149.057,99.9631 156.39,117.63 163.5,135.5C 161.513,137.327 159.179,138.327 156.5,138.5C 147.171,134.503 137.838,130.503 128.5,126.5C 125.64,122.645 122.64,118.812 119.5,115C 116.57,115.292 113.903,116.459 111.5,118.5C 97.4329,113.628 83.7662,107.961 70.5,101.5C 90.7528,92.9713 111.086,84.6379 131.5,76.5 Z"/></g>
<g><path style="opacity:1" fill="#3665f9" d="M 280.5,83.5 C 281.792,86.668 281.792,89.8347 280.5,93C 274.96,94.3009 271.627,92.1342 270.5,86.5C 274.87,88.5021 278.203,87.5021 280.5,83.5 Z"/></g>
<g><path style="opacity:1" fill="#90aafd" d="M 177.5,83.5 C 178.239,83.369 178.906,83.5357 179.5,84C 177.513,85.3189 176.346,87.1523 176,89.5C 175.252,87.1599 175.752,85.1599 177.5,83.5 Z"/></g>
<g><path style="opacity:1" fill="#3f66f1" d="M 197.5,99.5 C 197.5,98.5 197.5,97.5 197.5,96.5C 196.167,96.5 194.833,96.5 193.5,96.5C 194.314,94.7274 195.648,94.2274 197.5,95C 198.801,96.6155 198.801,98.1155 197.5,99.5 Z"/></g>
<g><path style="opacity:1" fill="#161377" d="M 174.5,88.5 C 175.475,93.2755 177.308,97.6088 180,101.5C 184.612,100.058 189.112,98.3917 193.5,96.5C 194.833,96.5 196.167,96.5 197.5,96.5C 197.5,97.5 197.5,98.5 197.5,99.5C 191.453,100.851 185.786,103.184 180.5,106.5C 183.765,115.128 186.932,123.795 190,132.5C 190.765,134.066 190.598,135.399 189.5,136.5C 186.138,126.382 182.471,116.382 178.5,106.5C 179.517,104.528 178.85,103.195 176.5,102.5C 174.378,94.7977 172.044,87.131 169.5,79.5C 169.667,78.8333 169.833,78.1667 170,77.5C 171.428,81.307 172.928,84.9736 174.5,88.5 Z"/></g>
<g><path style="opacity:1" fill="#3566fe" d="M 70.5,101.5 C 83.7662,107.961 97.4329,113.628 111.5,118.5C 101.018,126.803 90.3516,134.97 79.5,143C 77.7834,144.559 75.7834,145.392 73.5,145.5C 68.9016,132.711 63.9016,120.044 58.5,107.5C 62.1579,104.939 66.1579,102.939 70.5,101.5 Z"/></g>
<g><path style="opacity:1" fill="#f2f2f9" d="M 176.5,102.5 C 178.85,103.195 179.517,104.528 178.5,106.5C 175.211,107.374 171.877,108.041 168.5,108.5C 168.33,107.178 168.663,106.011 169.5,105C 171.9,104.256 174.233,103.423 176.5,102.5 Z"/></g>
<g><path style="opacity:0.992" fill="#3365fc" d="M 51.5,112.5 C 57.1005,125.112 62.4338,137.945 67.5,151C 57.0145,159.409 46.3479,167.575 35.5,175.5C 30.0466,161.309 24.88,146.976 20,132.5C 19.6232,131.058 18.7899,130.058 17.5,129.5C 17.4142,128.504 17.7476,127.671 18.5,127C 29.4976,123.057 40.4976,119.224 51.5,115.5C 51.5,114.5 51.5,113.5 51.5,112.5 Z"/></g>
<g><path style="opacity:1" fill="#7573ac" d="M 195.5,129.5 C 192.903,125.21 191.403,120.543 191,115.5C 193.007,120.02 194.507,124.687 195.5,129.5 Z"/></g>
<g><path style="opacity:1" fill="#3766fc" d="M 128.5,126.5 C 137.838,130.503 147.171,134.503 156.5,138.5C 152.155,140.999 147.489,142.999 142.5,144.5C 137.458,138.792 132.791,132.792 128.5,126.5 Z"/></g>
<g><path style="opacity:0.779" fill="#03056d" d="M 17.5,129.5 C 18.7899,130.058 19.6232,131.058 20,132.5C 24.88,146.976 30.0466,161.309 35.5,175.5C 34.609,176.11 33.609,176.443 32.5,176.5C 27.0755,161.395 21.7421,146.228 16.5,131C 16.5699,130.235 16.9033,129.735 17.5,129.5 Z"/></g>
<g><path style="opacity:1" fill="#3c66f5" d="M 206.5,130.5 C 207.884,129.199 209.384,129.199 211,130.5C 211.91,132.945 211.076,134.278 208.5,134.5C 209.234,133.292 209.567,131.959 209.5,130.5C 208.5,130.5 207.5,130.5 206.5,130.5 Z"/></g>
<g><path style="opacity:1" fill="#3969ff" d="M 113.5,137.5 C 112.143,143.646 111.143,149.979 110.5,156.5C 104.42,156.483 98.4204,155.817 92.5,154.5C 89.3926,154.649 86.3926,154.149 83.5,153C 93.3462,145.909 103.013,138.576 112.5,131C 113.332,130.312 113.998,130.479 114.5,131.5C 113.652,133.409 113.318,135.409 113.5,137.5 Z"/></g>
<g><path style="opacity:1" fill="#3868ff" d="M 137.5,159.5 C 136.903,160.139 136.07,160.472 135,160.5C 127.525,159.244 120.025,158.244 112.5,157.5C 112.84,151.792 113.507,146.125 114.5,140.5C 115.045,137.187 115.545,133.854 116,130.5C 123.176,140.196 130.342,149.863 137.5,159.5 Z"/></g>
<g><path style="opacity:1" fill="#6281ff" d="M 220.5,136.5 C 221.586,136.62 222.253,137.287 222.5,138.5C 221.696,140.957 220.696,140.957 219.5,138.5C 219.863,137.817 220.196,137.15 220.5,136.5 Z"/></g>
<g><path style="opacity:1" fill="#f6f6fa" d="M 196.5,138.5 C 197.497,138.47 198.164,138.97 198.5,140C 201.466,149.407 204.8,158.574 208.5,167.5C 207.232,169.047 205.565,170.047 203.5,170.5C 200.131,160.226 196.464,150.059 192.5,140C 193.745,139.209 195.078,138.709 196.5,138.5 Z"/></g>
<g><path style="opacity:1" fill="#3564f9" d="M 183.5,200.5 C 171.188,183.901 158.854,167.234 146.5,150.5C 150.178,148.052 154.178,146.385 158.5,145.5C 160.5,145.167 162.5,144.833 164.5,144.5C 170.831,163.155 177.165,181.822 183.5,200.5 Z"/></g>
<g><path style="opacity:1" fill="#403988" d="M 196.5,138.5 C 197.209,137.596 198.209,137.263 199.5,137.5C 202.436,147.309 205.77,156.976 209.5,166.5C 208.833,166.5 208.5,166.833 208.5,167.5C 204.8,158.574 201.466,149.407 198.5,140C 198.164,138.97 197.497,138.47 196.5,138.5 Z"/></g>
<g><path style="opacity:1" fill="#181376" d="M 195.5,129.5 C 196.479,130.765 197.479,132.099 198.5,133.5C 201.195,132.492 203.862,131.492 206.5,130.5C 207.5,130.5 208.5,130.5 209.5,130.5C 209.567,131.959 209.234,133.292 208.5,134.5C 205.215,134.928 202.215,135.928 199.5,137.5C 198.209,137.263 197.209,137.596 196.5,138.5C 195.078,138.709 193.745,139.209 192.5,140C 196.464,150.059 200.131,160.226 203.5,170.5C 202.833,170.5 202.167,170.5 201.5,170.5C 198.166,160.499 194.833,150.499 191.5,140.5C 191.343,139.127 191.51,137.793 192,136.5C 193.586,135.624 195.086,134.624 196.5,133.5C 195.754,132.264 195.421,130.93 195.5,129.5 Z"/></g>
<g><path style="opacity:1" fill="#3968ff" d="M 88.5,155.5 C 95.3316,156.731 102.332,157.731 109.5,158.5C 108.5,165.833 107.5,173.167 106.5,180.5C 106.66,182.199 106.494,183.866 106,185.5C 98.3457,176.19 91.179,166.523 84.5,156.5C 85.6888,155.571 87.0222,155.238 88.5,155.5 Z"/></g>
<g><path style="opacity:1" fill="#cdd7ff" d="M 113.5,137.5 C 113.263,138.791 113.596,139.791 114.5,140.5C 113.507,146.125 112.84,151.792 112.5,157.5C 120.025,158.244 127.525,159.244 135,160.5C 136.07,160.472 136.903,160.139 137.5,159.5C 138.625,160.348 138.625,161.348 137.5,162.5C 128.855,161.313 120.189,160.313 111.5,159.5C 110.804,167.075 109.47,174.409 107.5,181.5C 107.5,180.833 107.167,180.5 106.5,180.5C 107.5,173.167 108.5,165.833 109.5,158.5C 102.332,157.731 95.3316,156.731 88.5,155.5C 90.099,155.768 91.4324,155.434 92.5,154.5C 98.4204,155.817 104.42,156.483 110.5,156.5C 111.143,149.979 112.143,143.646 113.5,137.5 Z"/></g>
<g><path style="opacity:1" fill="#3768ff" d="M 137.5,162.5 C 138.332,163.329 137.999,164.162 136.5,165C 127.026,171.64 117.693,178.473 108.5,185.5C 107.571,184.311 107.238,182.978 107.5,181.5C 109.47,174.409 110.804,167.075 111.5,159.5C 120.189,160.313 128.855,161.313 137.5,162.5 Z"/></g>
<g><path style="opacity:1" fill="#3b69ff" d="M 71.5,162.5 C 70.3365,171.142 69.3365,179.808 68.5,188.5C 66.1944,188.007 63.861,187.674 61.5,187.5C 54.76,186.991 48.0933,185.991 41.5,184.5C 51.2375,176.756 61.2375,169.422 71.5,162.5 Z"/></g>
<g><path style="opacity:1" fill="#3969ff" d="M 87.5,191.5 C 82.3177,190.345 76.9844,189.345 71.5,188.5C 71.1667,187.333 70.8333,186.167 70.5,185C 71.4548,178.149 72.4548,171.316 73.5,164.5C 73.3505,163.448 73.5172,162.448 74,161.5C 81.5,171.667 89,181.833 96.5,192C 93.5248,192.044 90.5248,191.877 87.5,191.5 Z"/></g>
<g><path style="opacity:1" fill="#4262e6" d="M 218.5,169.5 C 219.209,168.596 220.209,168.263 221.5,168.5C 221.87,164.814 220.537,163.814 217.5,165.5C 218.932,163.353 220.765,163.02 223,164.5C 224.177,168.492 222.677,170.158 218.5,169.5 Z"/></g>
<g><path style="opacity:1" fill="#426fff" d="M 231.5,168.5 C 234.957,168.667 235.29,169.667 232.5,171.5C 231.614,170.675 231.281,169.675 231.5,168.5 Z"/></g>
<g><path style="opacity:1" fill="#0f117a" d="M 337.5,219.5 C 338.367,210.748 337.034,202.415 333.5,194.5C 322.389,175.114 305.723,167.28 283.5,171C 271.305,174.382 262.305,181.549 256.5,192.5C 249.674,204.261 248.674,216.595 253.5,229.5C 252.883,229.389 252.383,229.056 252,228.5C 249.694,219.973 249.028,211.306 250,202.5C 258.178,177.657 275.344,166.157 301.5,168C 328.046,175.321 340.046,192.488 337.5,219.5 Z"/></g>
<g><path style="opacity:1" fill="#3465fb" d="M 333.5,194.5 C 308.253,177.95 282.586,177.284 256.5,192.5C 262.305,181.549 271.305,174.382 283.5,171C 305.723,167.28 322.389,175.114 333.5,194.5 Z"/></g>
<g><path style="opacity:1" fill="#3566fd" d="M 176.5,211.5 C 162.818,204.909 149.318,197.909 136,190.5C 138.755,206.451 141.589,222.451 144.5,238.5C 133.063,236.679 121.729,234.346 110.5,231.5C 109.702,233.078 109.202,234.744 109,236.5C 107.835,248.816 107.002,261.15 106.5,273.5C 94.6967,258.184 83.0301,242.684 71.5,227C 95.9878,208.257 120.654,189.757 145.5,171.5C 156.314,184.463 166.648,197.796 176.5,211.5 Z"/></g>
<g><path style="opacity:1" fill="#efeff6" d="M 201.5,170.5 C 202.167,170.5 202.833,170.5 203.5,170.5C 203.5,171.5 203.5,172.5 203.5,173.5C 205.861,173.326 208.194,172.993 210.5,172.5C 213.223,182.669 216.556,192.669 220.5,202.5C 219.15,203.95 217.484,204.617 215.5,204.5C 212.641,195.09 209.474,185.757 206,176.5C 205.583,175.244 204.75,174.577 203.5,174.5C 200.301,175.899 196.968,176.899 193.5,177.5C 193.5,176.167 193.5,174.833 193.5,173.5C 196.443,173.02 199.11,172.02 201.5,170.5 Z"/></g>
<g><path style="opacity:1" fill="#0b107b" d="M 171.5,139.5 C 169.859,141.258 167.859,142.758 165.5,144C 173.135,164.405 180.468,184.905 187.5,205.5C 185.937,204.055 184.604,202.389 183.5,200.5C 177.165,181.822 170.831,163.155 164.5,144.5C 162.5,144.833 160.5,145.167 158.5,145.5C 162.649,143.261 166.982,141.261 171.5,139.5 Z"/></g>
<g><path style="opacity:1" fill="#fcfdfe" d="M 333.5,194.5 C 337.034,202.415 338.367,210.748 337.5,219.5C 330.027,247.754 311.693,259.754 282.5,255.5C 271.544,252.198 262.877,245.865 256.5,236.5C 255.773,234.046 254.773,231.713 253.5,229.5C 248.674,216.595 249.674,204.261 256.5,192.5C 282.586,177.284 308.253,177.95 333.5,194.5 Z"/></g>
<g><path style="opacity:1" fill="#3a69ff" d="M 58.5,188.5 C 61.2869,189.477 64.2869,189.81 67.5,189.5C 66.7344,195.832 65.9011,202.165 65,208.5C 64.8442,211.191 64.0109,213.524 62.5,215.5C 55.3872,206.119 48.3872,196.619 41.5,187C 47.1491,187.324 52.8158,187.824 58.5,188.5 Z"/></g>
<g><path style="opacity:1" fill="#3968ff" d="M 85.5,192.5 C 89.1718,193.021 92.8384,193.687 96.5,194.5C 86.3153,202.42 75.982,210.086 65.5,217.5C 66.8333,208.5 68.1667,199.5 69.5,190.5C 74.8075,191.33 80.1408,191.997 85.5,192.5 Z"/></g>
<g><path style="opacity:1" fill="#010167" d="M 176.5,211.5 C 178.824,214.804 181.157,218.138 183.5,221.5C 159.105,241.096 134.105,259.596 108.5,277C 107.177,276.184 106.511,275.017 106.5,273.5C 107.002,261.15 107.835,248.816 109,236.5C 109.202,234.744 109.702,233.078 110.5,231.5C 121.729,234.346 133.063,236.679 144.5,238.5C 141.589,222.451 138.755,206.451 136,190.5C 149.318,197.909 162.818,204.909 176.5,211.5 Z"/></g>
<g><path style="opacity:1" fill="#cdd6ff" d="M 73.5,164.5 C 72.4548,171.316 71.4548,178.149 70.5,185C 70.8333,186.167 71.1667,187.333 71.5,188.5C 76.9844,189.345 82.3177,190.345 87.5,191.5C 86.5084,191.328 85.8417,191.662 85.5,192.5C 80.1408,191.997 74.8075,191.33 69.5,190.5C 68.1667,199.5 66.8333,208.5 65.5,217.5C 64.2418,218.016 63.2418,217.35 62.5,215.5C 64.0109,213.524 64.8442,211.191 65,208.5C 65.9011,202.165 66.7344,195.832 67.5,189.5C 64.2869,189.81 61.2869,189.477 58.5,188.5C 59.791,188.737 60.791,188.404 61.5,187.5C 63.861,187.674 66.1944,188.007 68.5,188.5C 69.3365,179.808 70.3365,171.142 71.5,162.5C 71.4346,162.062 71.6012,161.728 72,161.5C 72.2321,162.737 72.7321,163.737 73.5,164.5 Z"/></g>
<g><path style="opacity:0.782" fill="#05056b" d="M 349.5,193.5 C 350.598,194.397 350.598,195.23 349.5,196C 346.282,196.9 343.282,198.067 340.5,199.5C 339.522,199.189 338.855,198.522 338.5,197.5C 341.859,195.32 345.526,193.987 349.5,193.5 Z"/></g>
<g><path style="opacity:1" fill="#4e6bed" d="M 231.5,203.5 C 232.209,202.596 233.209,202.263 234.5,202.5C 234.5,201.5 234.5,200.5 234.5,199.5C 233.167,199.5 231.833,199.5 230.5,199.5C 233.067,196.734 235.067,197.234 236.5,201C 235.615,203.157 233.948,203.99 231.5,203.5 Z"/></g>
<g><path style="opacity:0.004" fill="#312b54" d="M 34.5,198.5 C 35.9063,198.973 36.573,199.973 36.5,201.5C 35.0937,201.027 34.427,200.027 34.5,198.5 Z"/></g>
<g><path style="opacity:1" fill="#1a1373" d="M 218.5,169.5 C 215.821,169.673 213.487,170.673 211.5,172.5C 215.444,182.331 218.777,192.331 221.5,202.5C 224.598,201.784 227.598,200.784 230.5,199.5C 231.833,199.5 233.167,199.5 234.5,199.5C 234.5,200.5 234.5,201.5 234.5,202.5C 233.209,202.263 232.209,202.596 231.5,203.5C 228.692,204.103 226.026,205.103 223.5,206.5C 226.098,213.128 228.598,219.795 231,226.5C 231.561,227.022 232.228,227.355 233,227.5C 237.745,225.53 242.578,223.863 247.5,222.5C 247.586,223.496 247.252,224.329 246.5,225C 240.981,227.34 235.314,229.173 229.5,230.5C 229.567,229.041 229.234,227.708 228.5,226.5C 226.577,221.232 224.744,215.899 223,210.5C 221.923,207.211 220.09,206.711 217.5,209C 219.601,214.469 221.601,219.969 223.5,225.5C 224.014,227.366 224.68,229.2 225.5,231C 225.389,232.722 224.889,232.888 224,231.5C 221.433,223.95 218.6,216.616 215.5,209.5C 216.443,207.999 216.109,206.665 214.5,205.5C 210.641,195.258 206.975,184.925 203.5,174.5C 204.75,174.577 205.583,175.244 206,176.5C 209.474,185.757 212.641,195.09 215.5,204.5C 217.484,204.617 219.15,203.95 220.5,202.5C 216.556,192.669 213.223,182.669 210.5,172.5C 208.194,172.993 205.861,173.326 203.5,173.5C 203.5,172.5 203.5,171.5 203.5,170.5C 205.565,170.047 207.232,169.047 208.5,167.5C 208.5,166.833 208.833,166.5 209.5,166.5C 209.735,167.097 210.235,167.43 211,167.5C 213.154,166.726 215.321,166.059 217.5,165.5C 220.537,163.814 221.87,164.814 221.5,168.5C 220.209,168.263 219.209,168.596 218.5,169.5 Z"/></g>
<g><path style="opacity:1" fill="#fafbff" d="M 114.5,202.5 C 122.658,201.823 126.158,205.49 125,213.5C 122.459,218.069 118.625,219.569 113.5,218C 107.974,212.357 108.308,207.19 114.5,202.5 Z"/></g>
<g><path style="opacity:0.867" fill="#63559e" d="M 36.5,201.5 C 38.4456,202.035 39.4456,203.368 39.5,205.5C 38.0256,204.564 37.0256,203.23 36.5,201.5 Z"/></g>
<g><path style="opacity:1" fill="#f1f2f9" d="M 214.5,205.5 C 216.109,206.665 216.443,207.999 215.5,209.5C 212.211,210.374 208.877,211.041 205.5,211.5C 205.33,210.178 205.663,209.011 206.5,208C 209.154,207.059 211.821,206.226 214.5,205.5 Z"/></g>
<g><path style="opacity:0.839" fill="#02036a" d="M 340.5,201.5 C 348.507,223.632 342.84,241.465 323.5,255C 311.874,260.384 299.874,261.884 287.5,259.5C 291.514,259.666 295.514,259.499 299.5,259C 329.99,251.858 343.657,232.692 340.5,201.5 Z"/></g>
<g><path style="opacity:0.043" fill="#33287a" d="M 40.5,206.5 C 41.9063,206.973 42.573,207.973 42.5,209.5C 41.0937,209.027 40.427,208.027 40.5,206.5 Z"/></g>
<g><path style="opacity:0.078" fill="#2c2167" d="M 42.5,209.5 C 44.2624,210.262 45.2624,211.596 45.5,213.5C 43.7376,212.738 42.7376,211.404 42.5,209.5 Z"/></g>
<g><path style="opacity:0.779" fill="#0d086c" d="M 45.5,213.5 C 48.5162,216.52 51.1829,219.854 53.5,223.5C 60.6634,245.309 68.33,267.309 76.5,289.5C 83.4189,288.977 90.0856,286.977 96.5,283.5C 90.9006,275.95 85.5673,268.283 80.5,260.5C 93.6558,277.462 106.822,294.462 120,311.5C 150.7,288.63 181.534,265.963 212.5,243.5C 223.21,238.484 234.21,233.984 245.5,230C 247.674,229.123 249.341,229.623 250.5,231.5C 243.079,234.289 235.579,236.956 228,239.5C 221.724,243.055 215.224,246.221 208.5,249C 178.975,271.359 149.308,293.526 119.5,315.5C 112.198,305.857 104.865,296.191 97.5,286.5C 90.5,289.167 83.5,291.833 76.5,294.5C 75.914,294.291 75.414,293.957 75,293.5C 65.6414,266.584 55.8081,239.917 45.5,213.5 Z"/></g>
<g><path style="opacity:1" fill="#e5e8f9" d="M 228.5,226.5 C 226.784,226.371 225.117,226.038 223.5,225.5C 221.601,219.969 219.601,214.469 217.5,209C 220.09,206.711 221.923,207.211 223,210.5C 224.744,215.899 226.577,221.232 228.5,226.5 Z"/></g>
<g><path style="opacity:1" fill="#3261f6" d="M 53.5,223.5 C 62.9113,235.571 71.9113,247.905 80.5,260.5C 85.5673,268.283 90.9006,275.95 96.5,283.5C 90.0856,286.977 83.4189,288.977 76.5,289.5C 68.33,267.309 60.6634,245.309 53.5,223.5 Z"/></g>
<g><path style="opacity:0.962" fill="#150e6f" d="M 256.5,236.5 C 262.877,245.865 271.544,252.198 282.5,255.5C 282.443,256.609 282.11,257.609 281.5,258.5C 278.673,257.892 276.007,256.892 273.5,255.5C 268.555,252.555 263.888,249.221 259.5,245.5C 257.453,243.45 255.786,241.117 254.5,238.5C 255.5,238.167 256.167,237.5 256.5,236.5 Z"/></g>
<g><path style="opacity:1" fill="#3b69ff" d="M 275.5,244.5 C 278.738,245.633 282.071,246.467 285.5,247C 294.596,247.374 303.596,247.54 312.5,247.5C 310.403,250.71 307.403,252.544 303.5,253C 294.319,254.622 285.653,253.289 277.5,249C 275.963,247.89 275.297,246.39 275.5,244.5 Z"/></g>
<g><path style="opacity:0.905" fill="#f7f8fd" d="M 259.5,245.5 C 263.888,249.221 268.555,252.555 273.5,255.5C 273.047,256.458 272.381,257.292 271.5,258C 272.84,260.149 272.173,261.316 269.5,261.5C 265.546,257.188 260.88,253.855 255.5,251.5C 256.203,249.127 257.536,247.127 259.5,245.5 Z"/></g>
<g><path style="opacity:0.927" fill="#f5f6fb" d="M 255.5,252.5 C 260.099,255.429 264.099,259.096 267.5,263.5C 266.833,264.5 266.167,265.5 265.5,266.5C 260.587,263.882 256.254,260.548 252.5,256.5C 252.738,254.596 253.738,253.262 255.5,252.5 Z"/></g>
<g><path style="opacity:0.951" fill="#000065" d="M 252.5,256.5 C 256.254,260.548 260.587,263.882 265.5,266.5C 266.097,266.735 266.43,267.235 266.5,268C 250.664,291.334 234.33,314.334 217.5,337C 215.833,337.667 214.167,337.667 212.5,337C 207.816,334.177 203.816,330.677 200.5,326.5C 216.341,302.817 232.674,279.484 249.5,256.5C 250.425,255.438 251.425,255.438 252.5,256.5 Z"/></g>
<g><path style="opacity:0.878" fill="#446fff" d="M 255.5,251.5 C 260.88,253.855 265.546,257.188 269.5,261.5C 268.833,262.167 268.167,262.833 267.5,263.5C 264.099,259.096 260.099,255.429 255.5,252.5C 255.5,252.167 255.5,251.833 255.5,251.5 Z"/></g>
</svg>
